# Blender v2.76 (sub 0) OBJ File: 'Models.blend'
# www.blender.org
mtllib Bone.mtl
o Bone_Cube.002
v -0.107390 -0.184493 0.000000
v 0.000000 -0.184493 -0.107390
v 0.107390 -0.184493 0.000000
v 0.000000 -0.184493 0.107390
v 0.000000 -0.999735 0.000000
v 0.000000 -0.000044 0.000000
v -0.069650 -0.184493 0.069650
v -0.080542 -0.073480 0.000000
v -0.069650 -0.184493 -0.069650
v -0.080542 -0.404801 0.000000
v 0.000000 -0.073480 -0.080542
v 0.069650 -0.184493 -0.069650
v 0.000000 -0.404801 -0.080542
v 0.080542 -0.073480 0.000000
v 0.069650 -0.184493 0.069650
v 0.080542 -0.404801 0.000000
v 0.000000 -0.073480 0.080542
v 0.000000 -0.404801 0.080542
v -0.051592 -0.347684 0.051592
v -0.051592 -0.130597 0.051592
v -0.051592 -0.347684 -0.051592
v -0.051592 -0.130597 -0.051592
v 0.051592 -0.347684 0.051592
v 0.051592 -0.130597 0.051592
v 0.051592 -0.347684 -0.051592
v 0.051592 -0.130597 -0.051592
vt 0.250000 0.180928
vt 0.125127 0.188397
vt 0.117312 0.133476
vt 0.202843 0.070776
vt 0.500000 0.819072
vt 0.452843 0.929224
vt 0.367312 0.866524
vt 0.375127 0.811603
vt 0.398210 0.649370
vt 0.500000 0.597801
vt 0.250000 0.402199
vt 0.148210 0.350630
vt 0.250000 0.805916
vt 0.265343 0.919357
vt 0.750000 0.194084
vt 0.765343 0.080643
vt 0.867312 0.133476
vt 0.875127 0.188397
vt 0.898211 0.350630
vt 0.812500 0.412066
vt 0.312500 0.587934
vt 1.000000 0.180928
vt 0.952843 0.070776
vt 0.750000 0.819072
vt 0.702843 0.929224
vt 0.617312 0.866523
vt 0.625127 0.811602
vt 0.648211 0.649369
vt 0.750000 0.597801
vt 1.000000 0.402199
vt 0.500000 0.805916
vt 0.515343 0.919357
vt 0.000000 0.194084
vt 0.015343 0.080643
vt 0.062500 0.412066
vt 0.562500 0.587934
vt 0.240607 1.000000
vt 0.490607 0.000000
vt 0.990608 1.000000
vt 0.740608 0.000000
vt 0.598320 1.000000
vt 0.848320 0.000000
vt 0.348320 1.000000
vt 0.098320 0.000000
vn -0.996100 0.087900 0.000000
vn -0.705200 0.073100 0.705200
vn -0.667200 0.331200 0.667200
vn -0.852000 0.523500 0.000000
vn -0.667200 0.331200 -0.667200
vn -0.705200 0.073100 -0.705200
vn -0.701700 -0.122800 -0.701700
vn -0.988300 -0.152700 0.000000
vn -0.701700 -0.122800 0.701700
vn 0.000000 0.087900 -0.996100
vn 0.000000 0.523500 -0.852000
vn 0.667200 0.331200 -0.667200
vn 0.705200 0.073100 -0.705200
vn 0.701700 -0.122800 -0.701700
vn 0.000000 -0.152700 -0.988300
vn 0.996100 0.087900 0.000000
vn 0.852000 0.523500 0.000000
vn 0.667200 0.331200 0.667200
vn 0.705200 0.073100 0.705200
vn 0.701700 -0.122800 0.701700
vn 0.988300 -0.152700 0.000000
vn 0.000000 0.087900 0.996100
vn 0.000000 0.523500 0.852000
vn 0.000000 -0.152700 0.988300
vn 0.000000 -1.000000 0.000000
vn 0.000000 1.000000 0.000000
usemtl BoneMaterial
s 1
f 1/1/1 7/2/2 20/3/3 8/4/4
f 1/5/1 8/6/4 22/7/5 9/8/6
f 1/5/1 9/8/6 21/9/7 10/10/8
f 1/1/1 10/11/8 19/12/9 7/2/2
f 2/13/10 9/8/6 22/7/5 11/14/11
f 2/15/10 11/16/11 26/17/12 12/18/13
f 2/15/10 12/18/13 25/19/14 13/20/15
f 2/13/10 13/21/15 21/9/7 9/8/6
f 3/22/16 12/18/13 26/17/12 14/23/17
f 3/24/16 14/25/17 24/26/18 15/27/19
f 3/24/16 15/27/19 23/28/20 16/29/21
f 3/22/16 16/30/21 25/19/14 12/18/13
f 4/31/22 15/27/19 24/26/18 17/32/23
f 4/33/22 17/34/23 20/3/3 7/2/2
f 4/33/22 7/2/2 19/12/9 18/35/24
f 4/31/22 18/36/24 23/28/20 15/27/19
f 5/37/25 18/35/24 19/12/9 10/11/8
f 5/38/25 10/10/8 21/9/7 13/21/15
f 5/39/25 13/20/15 25/19/14 16/30/21
f 5/40/25 16/29/21 23/28/20 18/36/24
f 6/41/26 17/32/23 24/26/18 14/25/17
f 6/42/26 14/23/17 26/17/12 11/16/11
f 6/43/26 11/14/11 22/7/5 8/6/4
f 6/44/26 8/4/4 20/3/3 17/34/23
